<svg width="12" height="12" viewBox="0 0 12 12" fill="none" xmlns="http://www.w3.org/2000/svg">
<path d="M6 0C2.682 0 0 2.682 0 6C0 9.318 2.682 12 6 12C9.318 12 12 9.318 12 6C12 2.682 9.318 0 6 0ZM8.58 8.58C8.52449 8.63562 8.45856 8.67975 8.38598 8.70986C8.31339 8.73997 8.23558 8.75547 8.157 8.75547C8.07842 8.75547 8.00061 8.73997 7.92803 8.70986C7.85544 8.67975 7.78951 8.63562 7.734 8.58L6 6.846L4.266 8.58C4.15381 8.69219 4.00166 8.75521 3.843 8.75521C3.68434 8.75521 3.53219 8.69219 3.42 8.58C3.30781 8.46781 3.24479 8.31566 3.24479 8.157C3.24479 8.07844 3.26026 8.00065 3.29032 7.92807C3.32039 7.8555 3.36445 7.78955 3.42 7.734L5.154 6L3.42 4.266C3.30781 4.15381 3.24479 4.00166 3.24479 3.843C3.24479 3.68434 3.30781 3.53219 3.42 3.42C3.53219 3.30781 3.68434 3.24479 3.843 3.24479C4.00166 3.24479 4.15381 3.30781 4.266 3.42L6 5.154L7.734 3.42C7.78955 3.36445 7.8555 3.32039 7.92807 3.29032C8.00065 3.26026 8.07844 3.24479 8.157 3.24479C8.23556 3.24479 8.31335 3.26026 8.38593 3.29032C8.4585 3.32039 8.52445 3.36445 8.58 3.42C8.63555 3.47555 8.67961 3.5415 8.70968 3.61407C8.73974 3.68665 8.75521 3.76444 8.75521 3.843C8.75521 3.92156 8.73974 3.99935 8.70968 4.07193C8.67961 4.1445 8.63555 4.21045 8.58 4.266L6.846 6L8.58 7.734C8.808 7.962 8.808 8.346 8.58 8.58Z" fill="black"/>
</svg>
