<svg width="84" height="30" viewBox="0 0 84 30" fill="none" xmlns="http://www.w3.org/2000/svg">
<rect x="0.5" y="0.5" width="83" height="29" rx="9.5" fill="white" stroke="#B0B0B0"/>
<path d="M39.2619 11.214V13.132H34.7259V15.246H39.0379V17.164H34.7259V21H32.5419V11.214H39.2619ZM43.0042 21H40.9042V13.468H43.0042V21ZM41.0722 12.516C40.8388 12.2733 40.7222 11.9793 40.7222 11.634C40.7222 11.2887 40.8388 10.9993 41.0722 10.766C41.3148 10.5233 41.6088 10.402 41.9542 10.402C42.2995 10.402 42.5888 10.5233 42.8222 10.766C43.0648 10.9993 43.1862 11.2887 43.1862 11.634C43.1862 11.9793 43.0648 12.2733 42.8222 12.516C42.5888 12.7493 42.2995 12.866 41.9542 12.866C41.6088 12.866 41.3148 12.7493 41.0722 12.516ZM47.092 21H44.992V10.612H47.092V21ZM51.5859 14.98V18.354C51.5859 18.6433 51.6606 18.872 51.8099 19.04C51.9593 19.1987 52.1366 19.278 52.3419 19.278C52.7339 19.278 53.0653 19.1007 53.3359 18.746L54.1199 20.216C53.4666 20.8133 52.7759 21.112 52.0479 21.112C51.3293 21.112 50.7179 20.874 50.2139 20.398C49.7193 19.922 49.4719 19.2733 49.4719 18.452V14.98H48.5899V13.468H49.4719V11.214H51.5859V13.468H53.4059V14.98H51.5859ZM61.77 19.908C60.9206 20.7107 59.922 21.112 58.774 21.112C57.6353 21.112 56.6926 20.762 55.946 20.062C55.1993 19.3527 54.826 18.4053 54.826 17.22C54.826 16.0347 55.204 15.092 55.96 14.392C56.7253 13.692 57.626 13.342 58.662 13.342C59.698 13.342 60.5753 13.6547 61.294 14.28C62.022 14.9053 62.386 15.764 62.386 16.856V17.976H56.898C56.9633 18.3867 57.178 18.7227 57.542 18.984C57.906 19.2453 58.3166 19.376 58.774 19.376C59.5113 19.376 60.118 19.1287 60.594 18.634L61.77 19.908ZM60.258 16.478C60.2113 16.03 60.0433 15.6847 59.754 15.442C59.4646 15.1993 59.11 15.078 58.69 15.078C58.2793 15.078 57.9013 15.204 57.556 15.456C57.2106 15.708 57.01 16.0487 56.954 16.478H60.258ZM67.8623 15.316C67.2369 15.316 66.7703 15.54 66.4623 15.988C66.1543 16.4267 66.0003 17.01 66.0003 17.738V21H63.9003V13.468H66.0003V14.462C66.2709 14.154 66.6069 13.8927 67.0083 13.678C67.4189 13.4633 67.8343 13.3513 68.2543 13.342L68.2683 15.316H67.8623Z" fill="#B0B0B0"/>
<path d="M26.625 10H15.375C15.2755 10 15.1802 10.0395 15.1098 10.1098C15.0395 10.1802 15 10.2755 15 10.375V11.0012C15.0001 11.0898 15.0177 11.1775 15.0518 11.2592C15.0859 11.341 15.1358 11.4151 15.1987 11.4775L19.5 15.8425V19.6675L20.25 19.9525V15.625C20.2503 15.5756 20.2408 15.5267 20.2221 15.481C20.2035 15.4353 20.176 15.3938 20.1412 15.3587L15.75 10.9712V10.75H26.25V10.9787L21.8737 15.3587C21.8363 15.3925 21.806 15.4335 21.7847 15.4792C21.7634 15.525 21.7516 15.5746 21.75 15.625V20.5787L22.5 20.875V15.8125L26.8012 11.5C26.8651 11.4361 26.9156 11.36 26.9498 11.2763C26.9839 11.1926 27.001 11.1029 27 11.0125V10.375C27 10.2755 26.9605 10.1802 26.8901 10.1098C26.8198 10.0395 26.7244 10 26.625 10Z" fill="#B0B0B0"/>
</svg>
