<?xml version="1.0" encoding="utf-8"?>
<!-- Generator: Adobe Illustrator 24.2.1, SVG Export Plug-In . SVG Version: 6.00 Build 0)  -->
<svg version="1.1" id="Capa_1" xmlns="http://www.w3.org/2000/svg" xmlns:xlink="http://www.w3.org/1999/xlink" x="0px" y="0px"
	 viewBox="0 0 1000 1000" style="enable-background:new 0 0 1000 1000;" xml:space="preserve">
<style type="text/css">
	.st0{fill:#2D4161;}
</style>
<g>
	<path class="st0" d="M500,990C229.8,990,10,770.2,10,500S229.8,10,500,10s490,219.8,490,490S770.2,990,500,990z M500,55.6
		C254.9,55.6,55.6,255,55.6,500S255,944.4,500,944.4c245.1,0,444.4-199.4,444.4-444.4S745.1,55.6,500,55.6z M555.2,303.5
		c-33.4,0-60.5-27.1-60.5-60.5s27.1-60.5,60.5-60.5s60.5,27.1,60.5,60.5S588.6,303.5,555.2,303.5z M402.7,409.8c0-4.9,0-9.9,0-14.8
		c48-19.1,122-12.1,171.5-29.6c2,0,3.9,0,5.9,0c-23.9,121.1-74.3,231.2-85.8,354.9c2.7,2.1,2.4,1.6,5.9,2.9
		c37.2,12.5,58.6-74,82.8-68c24.3,6-15.2,49-20.7,56.2c-21.7,28.4-63.2,76.6-112.4,76.9c-34.7,0.2-70.7-21.7-65.1-79.8
		c5.7-58.2,38.3-139.2,56.2-204.1C455.5,452.1,474.1,408.4,402.7,409.8z"/>
</g>
</svg>
