<?xml version="1.0" encoding="utf-8"?>
<!-- Generator: Adobe Illustrator 24.2.1, SVG Export Plug-In . SVG Version: 6.00 Build 0)  -->
<svg version="1.1" id="Capa_1" xmlns="http://www.w3.org/2000/svg" xmlns:xlink="http://www.w3.org/1999/xlink" x="0px" y="0px"
	 viewBox="0 0 308.06 332.46" style="enable-background:new 0 0 308.06 332.46;" xml:space="preserve">
<style type="text/css">
	.st0{fill:#FFFFFF;}
</style>
<path d="M72.87,271.34c-10.26,0-20.1,0.29-29.91-0.15c-3.53-0.16-7.34-1.47-10.37-3.33c-4.2-2.57-5.62-7.17-5.62-12.03
	c-0.03-28.95-0.1-57.89,0.04-86.84c0.05-9.42,6.26-15.24,15.71-15.3c9.85-0.06,19.69-0.01,30.15-0.01c0-1.8,0-3.37,0-4.94
	c0-31.57-0.04-63.13,0.02-94.7c0.02-13.09,6.99-22.92,18.64-26.25c2.83-0.81,5.89-1.17,8.84-1.17c33.56-0.08,67.11-0.02,100.67-0.1
	c3.11-0.01,5.42,1,7.6,3.19c23.06,23.16,46.17,46.28,69.32,69.35c2.27,2.26,3.34,4.69,3.34,7.94
	c-0.06,57.52-0.03,115.04-0.05,172.56c-0.01,16.21-10.94,27.41-27.17,27.44c-51.39,0.1-102.79,0.11-154.18,0
	c-16.11-0.03-26.82-11.04-27.02-27.17C72.85,277.11,72.87,274.39,72.87,271.34z M83.58,153.27c2.02,0,3.63,0,5.24,0
	c34.06,0,68.13-0.01,102.19,0.01c11.35,0.01,17.1,5.7,17.11,16.97c0.02,27.83,0.02,55.66,0,83.49
	c-0.01,11.37-5.64,16.93-17.07,16.93c-34.31,0.01-68.63,0-102.94,0c-1.46,0-2.92,0-4.76,0c0,2.8-0.01,5.15,0,7.5
	c0.04,11.64,6.16,17.77,17.79,17.77c50.54,0.01,101.07,0.01,151.61,0c11.76,0,18.02-6.27,18.02-18c0-54.66,0-109.33,0-163.99
	c0-1.34,0-2.68,0-4.37c-1.69,0-3.04,0-4.38,0c-13.6,0-27.2,0.02-40.8-0.01c-16.5-0.03-27.48-10.95-27.53-27.4
	c-0.04-13.73-0.01-27.46-0.01-41.19c0-1.31,0-2.62,0-3.94c-1.21-0.1-1.83-0.19-2.45-0.19c-32.19-0.01-64.39-0.01-96.58,0.02
	c-1.48,0-3,0.19-4.42,0.59c-6.93,1.99-11.21,7.71-11.22,15.41c-0.06,32.57-0.03,65.15-0.02,97.72
	C83.37,151.33,83.48,152.06,83.58,153.27z M117.66,163.76c-24.32,0-48.65-0.01-72.97,0c-6.01,0-7.25,1.23-7.25,7.23
	c-0.01,27.45-0.01,54.9,0,82.35c0,6.02,1.23,7.27,7.22,7.27c48.65,0.01,97.3,0.01,145.95,0c6.22,0,7.45-1.23,7.45-7.42
	c0-27.32,0-54.65,0-81.97c0-6.23-1.21-7.45-7.42-7.45C166.31,163.75,141.99,163.76,117.66,163.76z M261.02,99.11
	c-17.57-17.59-35.34-35.38-52.82-52.87c0,12.18-0.29,25.13,0.1,38.05c0.27,8.84,7.1,14.72,16.06,14.82
	c4.98,0.05,9.96,0.01,14.94,0.01C246.87,99.11,254.42,99.11,261.02,99.11z"/>
<path d="M98.22,190.14c7.51,0.35,14.81,0.08,21.89,1.16c11.63,1.78,18.58,10.66,18.19,21.95c-0.36,10.49-8.34,18.9-19.68,19.89
	c-6.66,0.58-13.4,0.11-20.41,0.11C98.22,219.19,98.22,205.06,98.22,190.14z M107.77,225.14c3.04,0,5.87,0.09,8.69-0.02
	c6.84-0.27,11.97-5.11,12.67-11.83c0.64-6.19-3.65-12.6-9.93-13.92c-3.66-0.77-7.54-0.51-11.43-0.72
	C107.77,207.78,107.77,216.3,107.77,225.14z"/>
<path d="M62.67,219.56c0,4.79,0,9.21,0,13.86c-3.16,0-5.96,0-9.01,0c0-14.31,0-28.43,0-42.77c7.46,0,14.82-0.52,22.08,0.14
	c8.48,0.77,13.51,7.17,13.16,15.29c-0.33,7.57-6.26,13.06-14.74,13.45C70.45,219.7,66.74,219.56,62.67,219.56z M62.62,211.33
	c4.09-0.21,7.82-0.13,11.46-0.66c3.09-0.45,5.18-2.44,5.19-5.85c0-3.29-2.07-5.14-5.02-5.53c-3.76-0.5-7.59-0.44-11.63-0.64
	C62.62,203.01,62.62,206.81,62.62,211.33z"/>
<path d="M158.19,216.68c0,6,0,11.44,0,17.04c-3.22,0-6.04,0-9.11,0c0-14.35,0-28.61,0-43.06c10.96,0,21.76,0,32.84,0
	c0,2.59,0,5.13,0,8.07c-7.78,0-15.45,0-23.4,0c0,3.32,0,6.25,0,9.6c6.82,0,13.75,0,20.91,0c0,2.94,0,5.47,0,8.36
	C172.51,216.68,165.7,216.68,158.19,216.68z"/>
<path class="st0" d="M62.62,211.33c0-4.52,0-8.32,0-12.67c4.04,0.2,7.87,0.14,11.63,0.64c2.95,0.39,5.02,2.24,5.02,5.53
	c0,3.41-2.1,5.4-5.19,5.85C70.44,211.2,66.71,211.13,62.62,211.33z"/>
</svg>
